<mxfile host="app.diagrams.net" modified="2023-01-02T14:18:47.472Z" agent="5.0 (Windows NT 10.0; Win64; x64) AppleWebKit/537.36 (KHTML, like Gecko) Chrome/108.0.0.0 Safari/537.36 OPR/94.0.0.0" version="20.7.4" etag="VlMGR4Q6Y1xFDeOPruN7" type="github">
  <diagram id="ZgMbXRKv74JaCYQseVol" name="Página-1">
    <mxGraphModel dx="1394" dy="758" grid="1" gridSize="10" guides="1" tooltips="1" connect="1" arrows="1" fold="1" page="1" pageScale="1" pageWidth="1169" pageHeight="827" math="0" shadow="0">
      <root>
        <mxCell id="0" />
        <mxCell id="1" parent="0" />
        <mxCell id="ynvQH3PPTNnCebqvkkvs-32" value="" style="strokeWidth=2;html=1;shape=mxgraph.flowchart.start_2;whiteSpace=wrap;fontSize=12;fontColor=#000000;" vertex="1" parent="1">
          <mxGeometry x="750" y="330" width="360" height="240" as="geometry" />
        </mxCell>
        <mxCell id="ynvQH3PPTNnCebqvkkvs-31" value="" style="strokeWidth=2;html=1;shape=mxgraph.flowchart.start_2;whiteSpace=wrap;fontSize=12;fontColor=#000000;" vertex="1" parent="1">
          <mxGeometry x="20" y="340" width="360" height="240" as="geometry" />
        </mxCell>
        <mxCell id="ynvQH3PPTNnCebqvkkvs-29" value="" style="strokeWidth=2;html=1;shape=mxgraph.flowchart.terminator;whiteSpace=wrap;fontSize=9;fontColor=#000000;movable=1;resizable=1;rotatable=1;deletable=1;editable=1;connectable=1;" vertex="1" parent="1">
          <mxGeometry x="300" y="345" width="540" height="210" as="geometry" />
        </mxCell>
        <mxCell id="ynvQH3PPTNnCebqvkkvs-1" value="" style="fontColor=#0066CC;verticalAlign=top;verticalLabelPosition=bottom;labelPosition=center;align=center;html=1;outlineConnect=0;fillColor=#CCCCCC;strokeColor=#6881B3;gradientColor=none;gradientDirection=north;strokeWidth=2;shape=mxgraph.networks.firewall;" vertex="1" parent="1">
          <mxGeometry x="265" y="400" width="100" height="100" as="geometry" />
        </mxCell>
        <mxCell id="ynvQH3PPTNnCebqvkkvs-2" value="" style="fontColor=#0066CC;verticalAlign=top;verticalLabelPosition=bottom;labelPosition=center;align=center;html=1;outlineConnect=0;fillColor=#CCCCCC;strokeColor=#6881B3;gradientColor=none;gradientDirection=north;strokeWidth=2;shape=mxgraph.networks.firewall;" vertex="1" parent="1">
          <mxGeometry x="795" y="400" width="100" height="100" as="geometry" />
        </mxCell>
        <mxCell id="ynvQH3PPTNnCebqvkkvs-3" value="&lt;font color=&quot;#000000&quot;&gt;&lt;b&gt;ISP&lt;br&gt;Embratel&lt;/b&gt;&lt;br&gt;&lt;/font&gt;" style="html=1;outlineConnect=0;fillColor=#CCCCCC;strokeColor=#6881B3;gradientColor=none;gradientDirection=north;strokeWidth=2;shape=mxgraph.networks.cloud;fontColor=#ffffff;" vertex="1" parent="1">
          <mxGeometry x="95" y="389" width="90" height="50" as="geometry" />
        </mxCell>
        <mxCell id="ynvQH3PPTNnCebqvkkvs-4" value="&lt;b&gt;&lt;font color=&quot;#000000&quot;&gt;ISP&lt;br&gt;VIVO&lt;/font&gt;&lt;/b&gt;" style="html=1;outlineConnect=0;fillColor=#CCCCCC;strokeColor=#6881B3;gradientColor=none;gradientDirection=north;strokeWidth=2;shape=mxgraph.networks.cloud;fontColor=#ffffff;" vertex="1" parent="1">
          <mxGeometry x="95" y="460" width="90" height="50" as="geometry" />
        </mxCell>
        <mxCell id="ynvQH3PPTNnCebqvkkvs-5" value="&lt;b&gt;&lt;font color=&quot;#000000&quot;&gt;ISP&lt;br&gt;Megalink&lt;/font&gt;&lt;/b&gt;" style="html=1;outlineConnect=0;fillColor=#CCCCCC;strokeColor=#6881B3;gradientColor=none;gradientDirection=north;strokeWidth=2;shape=mxgraph.networks.cloud;fontColor=#ffffff;" vertex="1" parent="1">
          <mxGeometry x="985" y="425" width="90" height="50" as="geometry" />
        </mxCell>
        <mxCell id="ynvQH3PPTNnCebqvkkvs-8" value="&lt;b&gt;Túnnel Routed Based&lt;br&gt;Dynamic&lt;/b&gt;" style="strokeWidth=2;html=1;shape=mxgraph.flowchart.direct_data;whiteSpace=wrap;" vertex="1" parent="1">
          <mxGeometry x="445" y="420" width="230" height="65" as="geometry" />
        </mxCell>
        <mxCell id="ynvQH3PPTNnCebqvkkvs-9" value="" style="shape=link;html=1;rounded=0;exitX=1;exitY=0.5;exitDx=0;exitDy=0;exitPerimeter=0;width=37;" edge="1" parent="1" source="ynvQH3PPTNnCebqvkkvs-1" target="ynvQH3PPTNnCebqvkkvs-8">
          <mxGeometry width="100" relative="1" as="geometry">
            <mxPoint x="365" y="580" as="sourcePoint" />
            <mxPoint x="395" y="450" as="targetPoint" />
          </mxGeometry>
        </mxCell>
        <mxCell id="ynvQH3PPTNnCebqvkkvs-18" value="VTI 1" style="edgeLabel;html=1;align=center;verticalAlign=middle;resizable=0;points=[];fontColor=#000000;" vertex="1" connectable="0" parent="ynvQH3PPTNnCebqvkkvs-9">
          <mxGeometry x="0.219" y="19" relative="1" as="geometry">
            <mxPoint as="offset" />
          </mxGeometry>
        </mxCell>
        <mxCell id="ynvQH3PPTNnCebqvkkvs-21" value="VTI 2" style="edgeLabel;html=1;align=center;verticalAlign=middle;resizable=0;points=[];fontColor=#000000;" vertex="1" connectable="0" parent="ynvQH3PPTNnCebqvkkvs-9">
          <mxGeometry x="0.2556" y="-17" relative="1" as="geometry">
            <mxPoint as="offset" />
          </mxGeometry>
        </mxCell>
        <mxCell id="ynvQH3PPTNnCebqvkkvs-13" value="" style="shape=link;html=1;rounded=0;entryX=0;entryY=0.5;entryDx=0;entryDy=0;entryPerimeter=0;width=32;" edge="1" parent="1" target="ynvQH3PPTNnCebqvkkvs-2">
          <mxGeometry width="100" relative="1" as="geometry">
            <mxPoint x="675" y="450" as="sourcePoint" />
            <mxPoint x="775" y="450" as="targetPoint" />
          </mxGeometry>
        </mxCell>
        <mxCell id="ynvQH3PPTNnCebqvkkvs-19" value="VTI 1" style="edgeLabel;html=1;align=center;verticalAlign=middle;resizable=0;points=[];fontColor=#000000;" vertex="1" connectable="0" parent="ynvQH3PPTNnCebqvkkvs-13">
          <mxGeometry x="-0.15" y="19" relative="1" as="geometry">
            <mxPoint as="offset" />
          </mxGeometry>
        </mxCell>
        <mxCell id="ynvQH3PPTNnCebqvkkvs-20" value="VTI 2" style="edgeLabel;html=1;align=center;verticalAlign=middle;resizable=0;points=[];fontColor=#000000;" vertex="1" connectable="0" parent="ynvQH3PPTNnCebqvkkvs-13">
          <mxGeometry x="-0.05" y="-14" relative="1" as="geometry">
            <mxPoint as="offset" />
          </mxGeometry>
        </mxCell>
        <mxCell id="ynvQH3PPTNnCebqvkkvs-14" value="" style="endArrow=none;html=1;rounded=0;" edge="1" parent="1" target="ynvQH3PPTNnCebqvkkvs-1">
          <mxGeometry width="50" height="50" relative="1" as="geometry">
            <mxPoint x="185" y="490" as="sourcePoint" />
            <mxPoint x="305" y="490" as="targetPoint" />
          </mxGeometry>
        </mxCell>
        <mxCell id="ynvQH3PPTNnCebqvkkvs-15" value="" style="endArrow=none;html=1;rounded=0;" edge="1" parent="1" target="ynvQH3PPTNnCebqvkkvs-1">
          <mxGeometry width="50" height="50" relative="1" as="geometry">
            <mxPoint x="175" y="413.62" as="sourcePoint" />
            <mxPoint x="255" y="389.0046153846155" as="targetPoint" />
          </mxGeometry>
        </mxCell>
        <mxCell id="ynvQH3PPTNnCebqvkkvs-16" value="" style="endArrow=none;html=1;rounded=0;entryX=0.06;entryY=0.5;entryDx=0;entryDy=0;entryPerimeter=0;" edge="1" parent="1" target="ynvQH3PPTNnCebqvkkvs-5">
          <mxGeometry width="50" height="50" relative="1" as="geometry">
            <mxPoint x="895" y="449.62" as="sourcePoint" />
            <mxPoint x="975" y="425.0046153846155" as="targetPoint" />
          </mxGeometry>
        </mxCell>
        <mxCell id="ynvQH3PPTNnCebqvkkvs-23" value="&lt;font style=&quot;font-size: 9px;&quot;&gt;10.100.200.10&lt;/font&gt;" style="text;html=1;align=center;verticalAlign=middle;resizable=0;points=[];autosize=1;strokeColor=none;fillColor=none;fontColor=#000000;" vertex="1" parent="1">
          <mxGeometry x="365" y="400" width="80" height="30" as="geometry" />
        </mxCell>
        <mxCell id="ynvQH3PPTNnCebqvkkvs-24" value="&lt;font style=&quot;font-size: 9px;&quot;&gt;10.100.200.9&lt;/font&gt;" style="text;html=1;align=center;verticalAlign=middle;resizable=0;points=[];autosize=1;strokeColor=none;fillColor=none;fontColor=#000000;" vertex="1" parent="1">
          <mxGeometry x="690" y="400" width="80" height="30" as="geometry" />
        </mxCell>
        <mxCell id="ynvQH3PPTNnCebqvkkvs-25" value="&lt;font style=&quot;font-size: 9px;&quot;&gt;10.100.250.2&lt;/font&gt;" style="text;html=1;align=center;verticalAlign=middle;resizable=0;points=[];autosize=1;strokeColor=none;fillColor=none;fontColor=#000000;" vertex="1" parent="1">
          <mxGeometry x="365" y="470" width="80" height="30" as="geometry" />
        </mxCell>
        <mxCell id="ynvQH3PPTNnCebqvkkvs-26" value="&lt;font style=&quot;font-size: 9px;&quot;&gt;10.100.250.1&lt;/font&gt;" style="text;html=1;align=center;verticalAlign=middle;resizable=0;points=[];autosize=1;strokeColor=none;fillColor=none;fontColor=#000000;" vertex="1" parent="1">
          <mxGeometry x="690" y="470" width="80" height="30" as="geometry" />
        </mxCell>
        <mxCell id="ynvQH3PPTNnCebqvkkvs-30" value="&lt;font style=&quot;font-size: 12px;&quot;&gt;Area OSPF 1&lt;/font&gt;" style="text;html=1;align=center;verticalAlign=middle;resizable=0;points=[];autosize=1;strokeColor=none;fillColor=none;fontSize=9;fontColor=#000000;" vertex="1" parent="1">
          <mxGeometry x="505" y="525" width="90" height="30" as="geometry" />
        </mxCell>
        <mxCell id="ynvQH3PPTNnCebqvkkvs-33" value="Millennium" style="text;html=1;align=center;verticalAlign=middle;resizable=0;points=[];autosize=1;strokeColor=none;fillColor=none;fontSize=12;fontColor=#000000;" vertex="1" parent="1">
          <mxGeometry x="155" y="540" width="80" height="30" as="geometry" />
        </mxCell>
        <mxCell id="ynvQH3PPTNnCebqvkkvs-34" value="N I.T Tech" style="text;html=1;align=center;verticalAlign=middle;resizable=0;points=[];autosize=1;strokeColor=none;fillColor=none;fontSize=12;fontColor=#000000;" vertex="1" parent="1">
          <mxGeometry x="890" y="525" width="80" height="30" as="geometry" />
        </mxCell>
      </root>
    </mxGraphModel>
  </diagram>
</mxfile>
